<svg xmlns="http://www.w3.org/2000/svg" viewBox="-12 -152 462 216" role="img" aria-label="Bornz Studio"><title>Bornz Studio</title><g fill="#141418"><path d="M-4.4 0Q-7.2 0 -7.2 -2Q-7.2 -4.2 -3.2 -4.8L0.8 -5.4Q5.2 -6 6.8 -7.5Q8.4 -9 9.4 -13.2L36.6 -130.8Q37.6 -134.8 36.6 -136.3Q35.6 -137.8 31.6 -138.6L27.6 -139.4Q25 -140 25 -141.6Q25 -144 28.6 -144H66.8Q80.2 -144 88.6 -136.6Q97 -129.2 97 -117.4Q97 -106.2 89 -96.2Q81 -86.2 67.6 -81.6Q66.6 -81.4 66.6 -80.7Q66.6 -80 67.6 -79.6Q78 -75.8 83.4 -67.4Q88.8 -59 88.8 -47.8Q88.8 -34.6 81.8 -23.7Q74.8 -12.8 62.9 -6.4Q51 0 36.4 0ZM50.4 -82.2Q59.2 -82.2 66.5 -86.8Q73.8 -91.4 78.2 -99.3Q82.6 -107.2 82.6 -116.6Q82.6 -127.2 77.3 -133.1Q72 -139 62.6 -139Q52.2 -139 50.4 -131L41.8 -93.2Q40.4 -87.2 42.4 -84.7Q44.4 -82.2 50.4 -82.2ZM37 -5Q47.6 -5 56 -10.7Q64.4 -16.4 69.3 -26.4Q74.2 -36.4 74.2 -48.8Q74.2 -62.4 67.9 -69.8Q61.6 -77.2 50.2 -77.2Q37.8 -77.2 35.6 -66.6L24.6 -18.8Q21.4 -5 37 -5Z"/><path d="M126.6 1.8Q114.2 1.8 107 -8.5Q99.8 -18.8 99.8 -36.4Q99.8 -49.4 104 -61.4Q108.2 -73.4 115.1 -82.8Q122 -92.2 130.5 -97.7Q139 -103.2 147.6 -103.2Q160 -103.2 167.2 -93Q174.4 -82.8 174.4 -65Q174.4 -52 170.2 -40Q166 -28 159.1 -18.6Q152.2 -9.2 143.7 -3.7Q135.2 1.8 126.6 1.8ZM126.2 -3Q132.6 -3 138.7 -9.2Q144.8 -15.4 149.8 -25.6Q154.8 -35.8 157.8 -48.3Q160.8 -60.8 160.8 -73.4Q160.8 -98.4 147.8 -98.4Q141.6 -98.4 135.4 -92.3Q129.2 -86.2 124.3 -76Q119.4 -65.8 116.4 -53.3Q113.4 -40.8 113.4 -28.2Q113.4 -3 126.2 -3Z"/><path d="M191.4 0Q188.6 0 189.2 -2.6L208.2 -82.4Q209.2 -86.8 208.5 -89.3Q207.8 -91.8 204.8 -91.8Q201.2 -91.8 196.9 -86.5Q192.6 -81.2 187.2 -66.4Q186.4 -63.8 184.4 -63.8Q181.4 -63.8 182.8 -67.4Q187.2 -81.2 192.1 -89Q197 -96.8 202 -100Q207 -103.2 211.2 -103.2Q217.8 -103.2 220.6 -98.3Q223.4 -93.4 220.8 -82.2L218.6 -72.8Q218.4 -71.4 219.2 -71.2Q220 -71 220.6 -72.2Q228.2 -89.6 234.4 -96.4Q240.6 -103.2 248.6 -103.2Q254 -103.2 256.7 -100.3Q259.4 -97.4 259.4 -92.4Q259.4 -87.4 257 -84.4Q254.6 -81.4 250.8 -81.4Q247.6 -81.4 246.2 -83Q244.8 -84.6 244.1 -86.7Q243.4 -88.8 242.6 -90.4Q241.8 -92 240 -92Q237 -92 232.2 -84.4Q227.4 -76.8 221.9 -63.9Q216.4 -51 211.3 -35Q206.2 -19 202.4 -2.2Q201.8 0 199.6 0Z"/><path d="M262.8 -2.6 281.8 -82.4Q282.8 -86.8 282.1 -89.3Q281.4 -91.8 278.4 -91.8Q274.8 -91.8 270.5 -86.5Q266.2 -81.2 260.8 -66.4Q260 -63.8 258 -63.8Q255 -63.8 256.4 -67.4Q260.8 -81.2 265.7 -89Q270.6 -96.8 275.6 -100Q280.6 -103.2 284.8 -103.2Q291.4 -103.2 294.2 -98.3Q297 -93.4 294.4 -82.2L289.4 -60.6Q289.2 -59.2 290 -59Q290.8 -58.8 291.4 -60Q299.2 -76.2 306.4 -85.7Q313.6 -95.2 320 -99.2Q326.4 -103.2 331.6 -103.2Q339 -103.2 342.4 -97.2Q345.8 -91.2 342.4 -78.8L327.2 -20.8Q325.8 -15.2 327 -12.4Q328.2 -9.6 331.4 -9.6Q335.4 -9.6 339.3 -14.9Q343.2 -20.2 347.4 -35Q348 -37.2 350 -37.2Q351.6 -37.2 351.9 -36Q352.2 -34.8 351.8 -33.2Q348 -19.6 343.6 -11.9Q339.2 -4.2 334.7 -1.2Q330.2 1.8 325.6 1.8Q318.4 1.8 314.8 -4.2Q311.2 -10.2 314.4 -22.8L329.8 -80.8Q332 -88.6 330.5 -91.6Q329 -94.6 326.2 -94.6Q321.8 -94.6 316.2 -89.1Q310.6 -83.6 304.8 -74.1Q299 -64.6 293.4 -52.6Q287.8 -40.6 283.3 -27.6Q278.8 -14.6 276 -2.2Q275.4 0 273.2 0H265Q262.2 0 262.8 -2.6Z"/><path d="M356.4 1.8Q353.8 1.8 353.8 -1.2Q353.8 -5 357.1 -8.7Q360.4 -12.4 365.6 -15.4L414.6 -80.2Q415.6 -81.8 415.1 -82.3Q414.6 -82.8 413.2 -82.2Q410.8 -81.2 407.6 -81.2Q402.4 -81.2 397.7 -83.3Q393 -85.4 389 -87.4Q385 -89.4 381.2 -89.4Q375.4 -89.4 372.6 -83.9Q369.8 -78.4 369.8 -66.4Q369.8 -63.8 367.4 -63.8Q365 -63.8 365 -67.4Q365 -81.2 368.3 -89Q371.6 -96.8 376.6 -100Q381.6 -103.2 386.8 -103.2Q392.6 -103.2 396.4 -101Q400.2 -98.8 403.2 -95.9Q406.2 -93 409.6 -90.8Q413 -88.6 418.4 -88.6Q420.8 -88.6 421.6 -91Q423.8 -95.6 427.2 -99.4Q430.6 -103.2 433.6 -103.2Q436.8 -103.2 436.8 -100Q436.8 -97.2 434.7 -95Q432.6 -92.8 428.9 -89.6Q425.2 -86.4 420.6 -80.2L375.2 -19.8Q374.4 -18.8 375 -18.1Q375.6 -17.4 377 -18Q379.4 -19 382.4 -19Q386.8 -19 391.6 -17.3Q396.4 -15.6 401.1 -13.8Q405.8 -12 409.4 -12Q415.2 -12 418 -17.3Q420.8 -22.6 420.8 -34.6Q420.8 -37.2 423.2 -37.2Q425.6 -37.2 425.6 -33.6Q425.6 -20.2 422.3 -12.4Q419 -4.6 414 -1.4Q409 1.8 403.8 1.8Q398.4 1.8 394.4 -0.3Q390.4 -2.4 387.1 -5Q383.8 -7.6 380.8 -9.6Q377.8 -11.6 374.2 -11.6Q369.6 -11.6 367.8 -8.4Q365.8 -4.2 362.5 -1.2Q359.2 1.8 356.4 1.8Z"/></g><path d="M126.2 -3Q132.6 -3 138.7 -9.2Q144.8 -15.4 149.8 -25.6Q154.8 -35.8 157.8 -48.3Q160.8 -60.8 160.8 -73.4Q160.8 -98.4 147.8 -98.4Q141.6 -98.4 135.4 -92.3Q129.2 -86.2 124.3 -76Q119.4 -65.8 116.4 -53.3Q113.4 -40.8 113.4 -28.2Q113.4 -3 126.2 -3Z" fill="#b8892a"/><path d="M9.09 0.3Q6.87 0.3 5.28 -0.43Q3.69 -1.17 2.82 -2.54Q1.95 -3.9 1.95 -5.79H5.16Q5.16 -4.29 6.21 -3.44Q7.26 -2.58 9.12 -2.58Q10.86 -2.58 11.85 -3.42Q12.84 -4.26 12.84 -5.73Q12.84 -6.96 12.16 -7.86Q11.49 -8.76 10.23 -9.09L7.47 -9.9Q5.07 -10.59 3.76 -12.25Q2.46 -13.92 2.46 -16.23Q2.46 -18.03 3.27 -19.38Q4.08 -20.73 5.58 -21.48Q7.08 -22.23 9.12 -22.23Q12.12 -22.23 13.93 -20.61Q15.75 -18.99 15.78 -16.26H12.54Q12.54 -17.7 11.62 -18.52Q10.71 -19.35 9.06 -19.35Q7.47 -19.35 6.57 -18.59Q5.67 -17.82 5.67 -16.44Q5.67 -15.21 6.34 -14.31Q7.02 -13.41 8.28 -13.05L11.07 -12.21Q13.47 -11.55 14.76 -9.87Q16.05 -8.19 16.05 -5.85Q16.05 -4.02 15.18 -2.62Q14.31 -1.23 12.75 -0.46Q11.19 0.3 9.09 0.3ZM35.38 0V-18.93H29.53V-21.93H44.47V-18.93H38.62V0ZM65 0.3Q61.85 0.3 60.14 -1.43Q58.43 -3.15 58.43 -6.12V-21.9H61.67V-6.12Q61.67 -4.47 62.49 -3.51Q63.32 -2.55 65 -2.55Q66.65 -2.55 67.49 -3.51Q68.33 -4.47 68.33 -6.12V-21.9H71.57V-6.12Q71.57 -3.15 69.86 -1.43Q68.15 0.3 65 0.3ZM86.49 0V-21.9H92.61Q94.77 -21.9 96.36 -21.07Q97.95 -20.25 98.84 -18.75Q99.72 -17.25 99.72 -15.21V-6.72Q99.72 -4.71 98.84 -3.18Q97.95 -1.65 96.36 -0.82Q94.77 0 92.61 0ZM89.73 -2.94H92.61Q94.41 -2.94 95.44 -3.95Q96.48 -4.95 96.48 -6.72V-15.21Q96.48 -16.95 95.44 -17.95Q94.41 -18.96 92.61 -18.96H89.73ZM114.94 0V-2.88H119.35V-19.02H114.94V-21.9H127.06V-19.02H122.65V-2.88H127.06V0ZM149 0.3Q146.96 0.3 145.47 -0.46Q143.99 -1.23 143.19 -2.68Q142.4 -4.14 142.4 -6.09V-15.81Q142.4 -17.79 143.19 -19.23Q143.99 -20.67 145.47 -21.43Q146.96 -22.2 149 -22.2Q151.04 -22.2 152.52 -21.43Q154.01 -20.67 154.8 -19.23Q155.6 -17.79 155.6 -15.84V-6.09Q155.6 -4.14 154.8 -2.68Q154.01 -1.23 152.52 -0.46Q151.04 0.3 149 0.3ZM149 -2.58Q150.65 -2.58 151.5 -3.5Q152.36 -4.41 152.36 -6.09V-15.81Q152.36 -17.52 151.5 -18.42Q150.65 -19.32 149 -19.32Q147.38 -19.32 146.51 -18.42Q145.64 -17.52 145.64 -15.81V-6.09Q145.64 -4.41 146.51 -3.5Q147.38 -2.58 149 -2.58Z" fill="#6f6c78" transform="translate(281.40 50)"/></svg>
